<svg width="60" height="60" viewBox="0 0 60 60" fill="none" xmlns="http://www.w3.org/2000/svg">
<g opacity="0.6">
<mask id="mask0_602_1801" style="mask-type:alpha" maskUnits="userSpaceOnUse" x="0" y="0" width="60" height="60">
<circle cx="30" cy="30" r="30" fill="#C4C4C4"/>
</mask>
<g mask="url(#mask0_602_1801)">
<path d="M28.4088 9.38568C26.1168 9.8818 23.9339 11.0526 22.1975 12.6997C20.4016 14.3964 19.2903 16.0733 18.447 18.3455C17.6532 20.4689 17.4151 21.977 17.296 25.4796C17.1769 29.1409 16.9388 31.0559 16.2939 33.4869C15.6985 35.7591 14.746 37.6939 13.605 38.9143C13.1188 39.4601 12.9898 39.7875 13.1287 40.2142C13.2676 40.6408 13.5851 40.8591 14.8155 41.3949C16.6312 42.1887 19.2209 42.9626 21.3442 43.3397C21.751 43.4091 22.0983 43.5084 22.1181 43.5679C22.138 43.6274 22.0586 44.0541 21.9296 44.5204L21.7113 45.3638L17.1869 46.5049C12.6326 47.6559 11.7297 47.9436 10.4993 48.6679C7.98905 50.1464 6.09393 52.4979 5.20094 55.2266C4.68499 56.8042 4.45678 58.8482 4.7346 59.384C5.08188 60.0488 2.94862 59.9992 29.9963 59.9992C57.044 59.9992 54.9107 60.0488 55.258 59.384C55.3969 59.126 55.4068 58.8978 55.3572 58.1933C55.0794 54.1847 52.9263 50.6921 49.4932 48.6679C48.2629 47.9436 47.36 47.6559 42.8057 46.5049L38.2813 45.3638L38.063 44.5204C37.934 44.0541 37.8546 43.6274 37.8745 43.5679C37.8943 43.5084 38.2416 43.4091 38.6484 43.3397C40.6626 42.9726 43.1729 42.2383 44.9588 41.4743C46.3579 40.879 46.725 40.6408 46.854 40.2241C47.0028 39.7875 46.8837 39.4601 46.3876 38.9143C44.0559 36.3941 42.7065 31.2742 42.6966 24.9736C42.6867 18.8218 41.5952 14.4758 39.591 12.6104C38.7674 11.8464 37.9935 11.509 36.7334 11.3602L35.7015 11.2411L35.0566 10.7153C33.8064 9.68335 32.6951 9.31623 30.5916 9.24677C29.52 9.20708 29.0835 9.23685 28.4088 9.38568Z" fill="white"/>
<circle cx="30" cy="30" r="29" stroke="white" stroke-width="2"/>
</g>
</g>
</svg>
