<svg width="60" height="60" viewBox="0 0 60 60" fill="none" xmlns="http://www.w3.org/2000/svg">
<g opacity="0.6">
<path d="M29.8943 34.648C36.7201 34.648 42.2534 29.1146 42.2534 22.2888C42.2534 15.4631 36.7201 9.92969 29.8943 9.92969C23.0685 9.92969 17.5352 15.4631 17.5352 22.2888C17.5352 29.1146 23.0685 34.648 29.8943 34.648Z" fill="white"/>
<mask id="mask0_602_1817" style="mask-type:alpha" maskUnits="userSpaceOnUse" x="0" y="0" width="60" height="60">
<path d="M30 60C46.5685 60 60 46.5685 60 30C60 13.4315 46.5685 0 30 0C13.4315 0 0 13.4315 0 30C0 46.5685 13.4315 60 30 60Z" fill="#F9F2F2"/>
</mask>
<g mask="url(#mask0_602_1817)">
<path d="M29.9994 78.7499C42.13 78.7499 51.9637 68.9161 51.9637 56.7856C51.9637 44.655 42.13 34.8213 29.9994 34.8213C17.8689 34.8213 8.03516 44.655 8.03516 56.7856C8.03516 68.9161 17.8689 78.7499 29.9994 78.7499Z" fill="white"/>
</g>
<path d="M59 30C59 46.0163 46.0163 59 30 59C13.9837 59 1 46.0163 1 30C1 13.9837 13.9837 1 30 1C46.0163 1 59 13.9837 59 30Z" stroke="#DDDDDD" stroke-width="2"/>
</g>
</svg>
