<svg width="93" height="88" viewBox="0 0 93 88" fill="none" xmlns="http://www.w3.org/2000/svg">
<path d="M33.2591 0.401327C33.084 0.598326 32.6024 1.9992 32.2303 3.50952L31.5518 6.26749L30.3041 6.74904C27.6994 7.75592 23.0371 10.886 20.1915 13.5126C19.0314 14.5852 18.5499 14.8916 18.0464 14.8916C16.6675 14.8916 12.3116 15.5702 10.2103 16.0955C7.124 16.8835 3.90636 18.5033 2.24282 20.123C-0.0773797 22.3776 -0.690263 24.6102 0.841945 25.1793C1.73938 25.5295 2.17715 25.2669 3.11837 23.8003C4.47547 21.6333 6.40167 20.3857 10.0133 19.2913C12.7056 18.4814 14.1503 18.2187 17.4336 17.9779L19.9727 17.7809L21.3735 16.4676C25.0727 13.0311 29.6693 9.98857 32.69 9.00358C33.1278 8.87225 33.6531 8.58769 33.8282 8.36881C34.1784 7.97481 35.7325 2.17431 35.7325 1.25499C35.7325 0.160551 34.0252 -0.452332 33.2591 0.401327Z" fill="#D20DCD"/>
<path d="M37.7034 0.444672C37.4626 0.685447 37.2656 1.10133 37.2656 1.364C37.2875 1.64855 38.8416 4.90996 40.724 8.65293C44.4232 15.9419 44.6859 16.314 46.24 16.314C47.7941 16.314 48.0567 15.9419 51.7559 8.65293C53.6383 4.90996 55.1924 1.64855 55.2143 1.364C55.2362 0.138229 53.4195 -0.474653 52.6534 0.532226C52.4345 0.816779 50.9241 3.66231 49.3044 6.87994C47.6846 10.0757 46.3056 12.7023 46.24 12.7023C46.1743 12.7023 44.7953 10.0757 43.1756 6.87994C41.5558 3.66231 40.0455 0.816779 39.8266 0.532226C39.3232 -0.124434 38.3163 -0.168211 37.7034 0.444672Z" fill="#D20DCD"/>
<path d="M57.1172 0.400581C56.8983 0.619469 56.7451 1.03535 56.7451 1.29802C56.7451 2.19545 58.2992 7.99595 58.6494 8.36806C58.8245 8.58695 59.5031 8.89339 60.116 9.0685C63.0709 9.94404 68.0616 13.0303 71.1041 15.854C73.1178 17.7364 73.5775 17.9553 75.2629 17.9553C79.2686 17.9553 85.1347 19.7283 87.6082 21.6764C88.0678 22.0485 88.8558 22.9678 89.3374 23.7339C90.2786 25.2442 90.7382 25.5288 91.6357 25.1786C93.1679 24.6095 92.5331 22.3768 90.1691 20.0566C87.4112 17.3643 82.3549 15.5038 76.3136 15.0003L74.5625 14.8471L72.8114 13.3368C69.5062 10.4475 66.1354 8.30239 62.7645 6.90152C61.9327 6.5513 61.1447 6.20108 61.0572 6.11353C60.9477 6.04786 60.5756 4.80021 60.2035 3.37744C59.8533 1.93279 59.3936 0.59758 59.2185 0.378693C58.7589 -0.124746 57.5769 -0.102858 57.1172 0.400581Z" fill="#D20DCD"/>
<path d="M77.9995 6.48568C77.4741 7.16422 77.4522 7.25178 77.7806 7.97411C78.2621 9.00287 79.86 9.11232 80.3634 8.12733C80.7137 7.47067 80.648 6.92345 80.1664 6.39812C79.5317 5.71957 78.5686 5.76335 77.9995 6.48568Z" fill="#D20DCD"/>
<path d="M22.9715 19.7057C22.271 20.253 22.1835 21.2598 22.7745 21.8508C23.059 22.1354 25.2479 22.6607 31.0046 23.8208C39.388 25.4844 39.6944 25.5062 40.1103 24.3899C40.3949 23.6676 40.2197 23.0766 39.6069 22.6826C39.3442 22.5075 35.8201 21.7195 31.7926 20.9096C27.7651 20.0997 24.2629 19.3993 24.0221 19.3555C23.7595 19.2899 23.3217 19.4431 22.9715 19.7057Z" fill="#D20DCD"/>
<path d="M59.2418 20.8667C55.0172 21.7423 51.4056 22.574 51.1867 22.7491C50.8365 23.0556 50.7052 24.2157 51.0116 24.6535C51.5369 25.4633 51.9091 25.4196 59.8328 23.8436C64.101 22.9899 67.8002 22.1582 68.0848 21.983C68.5663 21.6547 68.7633 20.5384 68.3912 20.0131C68.2161 19.7285 67.3625 19.2688 67.0998 19.2907C67.0122 19.2907 63.4663 20.0131 59.2418 20.8667Z" fill="#D20DCD"/>
<path d="M45.2542 33.2777C45.0354 33.5185 44.2036 35.97 43.3937 38.728C42.5838 41.486 41.7083 44.0469 41.4456 44.3971C41.2048 44.7693 40.4825 45.3165 39.8477 45.6229L38.7095 46.192H28.5094H18.3312L15.3762 43.237C13.056 40.895 12.3118 40.2821 11.8302 40.2821C11.1736 40.2821 10.3418 41.1795 10.3418 41.9018C10.3418 42.1864 11.5457 43.5654 13.8002 45.8199L17.2805 49.2783L28.4218 49.2127L39.5632 49.147L40.7889 48.5779C43.3061 47.3959 44.6195 45.5791 45.6045 41.8581C45.8671 40.8731 46.1517 40.0632 46.2173 40.0632C46.3049 40.0632 46.677 41.1576 47.071 42.4928C48.0779 45.9512 49.1723 47.374 51.7114 48.5779L52.9153 49.147L64.8227 49.2127L76.7302 49.2783L80.0791 45.9294C82.0053 44.0032 83.4938 42.3396 83.5594 42.0332C83.7564 41.2233 82.9684 40.2821 82.0929 40.2821C81.5457 40.2821 80.9547 40.7417 78.4375 43.237L75.4387 46.192H64.6038H53.7689L52.6307 45.6229C51.9959 45.3165 51.2736 44.7693 51.0328 44.3971C50.7702 44.0469 49.8946 41.486 49.0848 38.728C48.2749 35.97 47.4431 33.5185 47.2242 33.2777C47.0053 33.0369 46.5676 32.8399 46.2392 32.8399C45.9109 32.8399 45.4731 33.0369 45.2542 33.2777Z" fill="#D20DCD"/>
<path d="M13.8231 51.2479C13.4072 51.6638 13.3634 51.8608 13.5166 53.2836C14.0639 58.8652 16.3622 67.6644 18.3103 71.5606C18.7042 72.3486 19.7987 75.1285 20.718 77.7551L22.3815 82.4831V84.8689C22.3815 87.5612 22.5785 87.999 23.8481 87.999C25.052 87.999 25.2271 87.5394 25.2271 84.3874V81.5638L23.5635 76.8577C22.6442 74.2529 21.6154 71.5825 21.2871 70.9259C20.324 68.9997 19.1639 65.7382 18.354 62.5863C17.7193 60.1347 16.8875 56.2604 16.9969 56.2604C17.0188 56.2604 17.8068 56.6107 18.7699 57.0265L20.521 57.7708L20.6523 59.4781C20.718 60.4193 21.0463 61.9077 21.3528 62.7833C22.3815 65.7164 24.3953 68.737 25.3146 68.737C25.4897 68.737 25.8618 68.54 26.1902 68.2773C26.8906 67.7301 26.9344 66.9202 26.2996 66.0009C26.0588 65.6288 25.4241 64.4906 24.8987 63.4399C23.7605 61.1197 23.3009 58.9527 23.6511 57.5519C24.0232 56.0853 23.6949 55.6257 21.703 54.9471C19.1639 54.0497 17.4128 53.0209 16.4059 51.8389C15.3991 50.6351 14.6111 50.4599 13.8231 51.2479Z" fill="#D20DCD"/>
<path d="M77.5615 51.7951C76.4233 52.999 74.3001 54.0497 71.4327 54.8158C70.3382 55.1003 69.3532 55.4068 69.2219 55.4943C68.7623 55.7789 68.609 56.6325 68.8279 57.6832C69.2219 59.5437 68.2369 62.7833 66.3764 65.6945C66.0043 66.2417 65.7197 66.9421 65.7197 67.2704C65.7197 67.8614 66.5953 68.737 67.2082 68.737C67.821 68.737 69.1562 67.0516 70.1631 64.994C71.3232 62.63 71.8486 60.7695 71.8486 59.0622V57.8802L73.1181 57.4862C73.7966 57.2673 74.913 56.8733 75.5915 56.5888L76.8173 56.1072L76.5108 57.4424C75.5258 61.7326 73.1838 68.6713 72.0455 70.6632C71.8267 71.0572 70.6447 73.6838 69.4408 76.5075L67.2519 81.6294V84.4531C67.2519 87.605 67.427 87.999 68.7185 87.999C69.8786 87.999 70.0975 87.4956 70.0975 84.8908V82.5706L72.155 77.777C73.2932 75.1504 74.6503 72.0641 75.1975 70.9259C76.9924 67.161 78.831 61.2292 80.0568 55.1879C80.7135 51.9265 80.7135 51.7733 80.1662 51.226C79.422 50.4818 78.634 50.6569 77.5615 51.7951Z" fill="#D20DCD"/>
<path d="M31.9236 54.0937C31.2231 54.641 31.1575 55.6259 31.7923 56.2607C32.1862 56.6547 32.5146 56.6985 35.4477 56.6985C38.0524 56.6985 39.2344 56.8079 41.6859 57.2895L44.7066 57.8805V61.2513C44.7066 64.5128 44.7285 64.6222 45.2538 65.1256C45.5383 65.4321 45.998 65.6729 46.2388 65.6729C46.5014 65.6729 46.9392 65.4321 47.2238 65.1256C47.7491 64.6222 47.771 64.5128 47.771 61.2513V57.9024L51.0105 57.2895C53.5715 56.8079 54.841 56.6985 57.2488 56.6985C59.963 56.6985 60.2913 56.6547 60.6853 56.2607C61.3201 55.6259 61.2544 54.641 60.554 54.0937C60.0286 53.6779 59.6784 53.6341 56.9861 53.6341C54.447 53.6341 53.4401 53.7435 50.1568 54.4002L46.2825 55.1882L42.3645 54.4002C39.0374 53.7435 37.9867 53.6341 35.4695 53.6341C32.7991 53.6341 32.4489 53.6779 31.9236 54.0937Z" fill="#D20DCD"/>
<path d="M30.2599 67.6422C29.7345 68.1676 29.6908 68.8899 30.1723 69.5684C30.5007 70.0281 30.632 70.05 34.2874 70.05C37.6364 70.05 38.4462 70.1375 41.3137 70.7066C43.0866 71.0569 44.597 71.3633 44.6407 71.3633C44.6626 71.3633 44.7064 73.5084 44.7064 76.1569C44.7064 80.666 44.7283 80.9724 45.1661 81.5197C45.7789 82.2858 46.6983 82.2858 47.3112 81.5197C47.7489 80.9724 47.7708 80.666 47.7708 76.1569C47.7708 73.5084 47.8146 71.3633 47.8365 71.3633C47.8803 71.3633 49.3906 71.0569 51.1636 70.7066C54.031 70.1375 54.8409 70.05 58.1898 70.05C61.8452 70.05 61.9766 70.0281 62.3049 69.5684C62.7864 68.8899 62.7427 68.1676 62.2173 67.6422C61.8015 67.2263 61.495 67.2045 57.5769 67.2045C53.7245 67.2045 53.0679 67.2701 49.8065 67.9049L46.2386 68.6053L42.6708 67.9049C39.4093 67.2701 38.7527 67.2045 34.9003 67.2045C30.9822 67.2045 30.6758 67.2263 30.2599 67.6422Z" fill="#D20DCD"/>
<path d="M8.08657 73.7721C7.2548 74.4287 7.32046 75.2386 8.26168 76.3331L9.00589 77.2086L8.26168 77.9309C7.36424 78.7846 7.2548 79.6601 7.93335 80.3387C8.56812 80.9735 9.35611 80.8859 10.2754 80.0322L11.1072 79.288L11.9609 80.0322C13.1647 81.061 14.2811 80.9516 14.7188 79.7696C14.9596 79.1348 14.7407 78.5876 13.8871 77.6464L13.318 77.0554L14.0622 76.2893C14.9596 75.3699 15.0472 74.3631 14.303 73.7283C13.5587 73.1592 13.0772 73.2467 12.0922 74.1442L11.1948 74.9322L10.4943 74.2536C9.53122 73.3343 8.83078 73.1811 8.08657 73.7721Z" fill="#D20DCD"/>
<path d="M45.1659 84.1906C44.5968 84.9129 44.5968 85.3945 45.1002 86.0512C45.9101 87.0362 47.7706 86.4014 47.7706 85.1537C47.7706 84.4752 46.917 83.6215 46.2384 83.6215C45.8225 83.6215 45.4504 83.8185 45.1659 84.1906Z" fill="#D20DCD"/>
</svg>
