<svg width="69" height="69" viewBox="0 0 69 69" fill="none" xmlns="http://www.w3.org/2000/svg">
<rect width="69" height="69" rx="9" fill="#262627"/>
<path d="M16.1762 14.1602C16.0721 14.2643 16 14.4245 16 14.5686C16 14.937 16.4244 15.9459 17.3773 17.8438C18.4664 20.0219 18.5545 20.4063 18.8748 24.2581C19.059 26.4602 19.1631 27.0368 19.6516 28.4942C20.0359 29.6393 20.2281 29.9356 20.6125 29.9356C20.8447 29.9356 21.2051 29.6073 21.2051 29.3991C21.2051 29.319 21.077 28.9186 20.9168 28.5022C20.4443 27.237 20.2602 26.3 20.084 24.25C19.9959 23.217 19.9078 22.2801 19.8918 22.168C19.8598 21.9838 19.8758 21.9838 20.1 22.2481C21.7977 24.218 23.2711 25.187 24.7605 25.3391C25.3371 25.3952 29.309 25.1709 30.6943 25.0108C32.6723 24.7706 33.9855 24.2821 34.8264 23.4573L35.2988 23.0008L35.7713 23.4573C36.8283 24.4823 38.2297 24.8987 41.4088 25.1309C42.5379 25.219 42.69 25.211 42.8662 25.0989C43.2186 24.8666 43.2266 24.3541 42.8822 24.1299C42.7701 24.0659 42.2416 23.9858 41.4248 23.9297C39.1746 23.7616 37.8453 23.4733 37.0605 22.9688C36.5721 22.6565 36.3799 22.4403 36.1156 21.9198C35.9555 21.5995 35.8193 21.4473 35.5951 21.3432C35.3068 21.1991 35.2908 21.1991 34.9945 21.3432C34.7783 21.4473 34.6502 21.5915 34.5141 21.8717C34.2738 22.3842 33.7533 22.8887 33.2088 23.153C32.2238 23.6415 30.9025 23.8336 27.259 24.0579C25.4252 24.17 24.9447 24.17 24.5764 24.0899C22.6385 23.6575 20.4443 21.2711 18.5305 17.4915C18.2182 16.8749 17.8418 16.0981 17.7057 15.7778L17.4494 15.2012H35.2988H53.1482L52.9801 15.5776C51.867 18.1721 50.3055 20.7106 48.9281 22.168C47.6549 23.5213 46.4937 24.17 45.3006 24.17C44.7721 24.17 44.5078 24.3782 44.5078 24.7866C44.5078 25.8196 46.8941 25.4352 48.5838 24.1379C49.0002 23.8176 49.9371 22.8887 50.4977 22.2481C50.6818 22.0399 50.7379 22.0079 50.7139 22.128C50.6898 22.2161 50.6018 23.153 50.5137 24.21C50.3055 26.7004 50.1213 27.4612 49.0803 30.0397C48.5277 31.425 48.0793 32.7303 47.9031 33.4991C47.4307 35.5491 48.1674 42.5239 49.2725 46.3436C49.5527 47.3366 50.4176 49.2825 50.6498 49.4586C50.858 49.6108 51.2664 49.5788 51.4346 49.3946C51.6668 49.1383 51.6107 48.8581 51.0902 47.753C50.4496 46.3756 50.1053 45.1264 49.6809 42.5879C49.2725 40.1776 49.0322 38.1196 48.9521 36.1817C48.8641 34.2438 49.0242 33.4991 50.1213 30.6883C51.3785 27.4532 51.4906 27.0047 51.7229 24.2581C52.0432 20.3823 52.1312 19.9739 53.1082 18.076C53.973 16.3944 54.5977 14.9209 54.5977 14.5686C54.5977 14.4245 54.5256 14.2643 54.4215 14.1602L54.2453 14H35.2988H16.3523L16.1762 14.1602Z" fill="#D20DCD"/>
<path d="M34.8504 26.5803C34.7062 26.7404 34.6982 26.9246 34.6742 29.375L34.6502 32.0015L33.5932 32.3699C31.5191 33.0906 29.9016 33.467 28.8445 33.483C28.276 33.491 28.1559 33.467 27.8355 33.2748C26.9707 32.7703 25.7295 30.8164 24.8486 28.5742C24.5363 27.7654 24.3521 27.5332 24.0318 27.5332C23.7836 27.5332 23.4473 27.8695 23.4473 28.1178C23.4473 28.374 23.9037 29.5031 24.4883 30.7043C25.4012 32.5781 26.5062 33.9795 27.4191 34.4199C28.4121 34.9084 30.366 34.6842 33.2088 33.7633C33.8895 33.5471 34.49 33.3469 34.5541 33.3228C34.6422 33.2908 34.6582 33.8754 34.6582 36.6941V40.1135L34.1217 40.3537C32.4881 41.0984 30.9586 41.5469 30.0857 41.5469C29.5492 41.5469 29.5252 41.5388 29.2209 41.2346C28.5883 40.6019 27.7475 38.9123 27.1309 37.0224C26.7785 35.9414 26.5703 35.6211 26.226 35.6211C26.1219 35.6211 25.9697 35.6771 25.8736 35.7412C25.5613 35.9574 25.5773 36.2056 26.0018 37.4469C26.9707 40.3056 27.9877 42.0433 28.9887 42.5398C29.7814 42.9322 31.0547 42.7961 32.9365 42.1234C33.425 41.9472 33.9936 41.731 34.2018 41.6349C34.418 41.5469 34.6102 41.4668 34.6262 41.4668C34.6422 41.4668 34.6582 42.9963 34.6582 44.8541V48.2494L33.6412 48.7299C32.36 49.3385 31.4391 49.6347 30.8145 49.6347C30.35 49.6347 30.35 49.6347 29.9416 49.1943C29.4691 48.6658 28.7244 47.2164 28.292 45.9512C27.9957 45.0783 27.8195 44.8301 27.4752 44.8301C27.227 44.8301 26.8906 45.1664 26.8906 45.4226C26.8906 45.9431 28.0117 48.5377 28.6363 49.4426C29.0127 50.0111 29.5973 50.5637 29.9736 50.7238C30.358 50.884 31.2389 50.8599 31.9516 50.6758C32.6562 50.4916 34.0816 49.907 34.7943 49.5066L35.2988 49.2263L35.8033 49.5066C36.54 49.915 37.9414 50.4916 38.6381 50.6758C39.3588 50.8599 40.2316 50.884 40.624 50.7238C41.0004 50.5637 41.585 50.0111 41.9613 49.4426C42.5859 48.5377 43.707 45.9431 43.707 45.4226C43.707 45.1744 43.3707 44.8301 43.1305 44.8301C42.7701 44.8301 42.618 45.0383 42.3137 45.9271C41.8572 47.2404 41.1285 48.6738 40.6561 49.1943C40.2477 49.6347 40.2477 49.6347 39.7832 49.6347C39.1586 49.6347 38.2377 49.3385 36.9645 48.7299L35.9395 48.2494V44.8461C35.9395 42.1635 35.9635 41.4588 36.0436 41.4908C38.3098 42.4197 39.1906 42.676 40.2797 42.724C41.0965 42.764 41.1686 42.756 41.585 42.5558C42.602 42.0513 43.6189 40.3377 44.5959 37.4469C45.0203 36.2056 45.0363 35.9574 44.724 35.7412C44.6279 35.6771 44.4758 35.6211 44.3717 35.6211C44.0273 35.6211 43.8191 35.9414 43.4668 37.0224C42.8582 38.9043 42.0094 40.6019 41.3768 41.2346C41.0725 41.5388 41.0484 41.5469 40.4879 41.5469C39.6311 41.5469 38.1816 41.1144 36.4039 40.3217L35.9395 40.1135V36.7101C35.9395 34.8283 35.9475 33.2988 35.9635 33.2988C35.9795 33.2988 36.4199 33.4429 36.9404 33.6191C38.1336 34.0275 39.4789 34.3879 40.3598 34.54C41.2406 34.7002 42.4498 34.7002 42.8902 34.548C43.8912 34.1957 44.8762 33.0746 45.9092 31.1207C46.4297 30.1277 47.1504 28.39 47.1504 28.1178C47.1504 27.8695 46.8141 27.5332 46.5658 27.5332C46.2455 27.5332 46.0613 27.7654 45.749 28.5742C45.1324 30.1437 44.2275 31.7693 43.4988 32.6342C42.8422 33.4029 42.3457 33.5791 41.2246 33.451C40.0475 33.3148 38.7662 32.9785 36.8844 32.3219L35.9475 31.9855L35.9234 29.367C35.8994 26.9246 35.8914 26.7404 35.7473 26.5803C35.6432 26.4681 35.499 26.4121 35.2988 26.4121C35.0986 26.4121 34.9545 26.4681 34.8504 26.5803Z" fill="#D20DCD"/>
<path d="M21.125 31.2969C20.9248 31.4971 20.9248 31.7934 21.125 32.3859C21.5895 33.7232 21.6375 34.0596 21.6295 35.6611C21.6215 37.7912 21.2691 40.8742 20.7246 43.6689C20.3402 45.5988 20.044 46.5918 19.5315 47.6969C18.4344 50.0432 17.8178 52.1092 17.6336 54.015C17.5856 54.5596 17.5936 54.5996 17.7857 54.7918L17.994 55H35.2988H52.6037L52.8039 54.7918C53.0041 54.5996 53.0121 54.5596 52.9561 54.015C52.892 53.2783 52.5477 51.5406 52.3955 51.1883C52.2193 50.7639 51.6588 50.6998 51.3705 51.0842C51.2184 51.3004 51.2184 51.3004 51.4186 52.1652C51.5307 52.6457 51.6508 53.2063 51.6828 53.4145L51.7309 53.7988H35.2988H18.8668L18.9229 53.3744C19.115 52.0051 19.6676 50.2914 20.5484 48.3455C20.8607 47.6648 21.1811 46.8561 21.2772 46.5518C21.8377 44.6219 22.3822 41.5148 22.6945 38.4639C22.8547 36.8383 22.8787 34.3158 22.7346 33.6592C22.5344 32.7463 22.0779 31.417 21.9098 31.2729C21.6936 31.0887 21.3252 31.0967 21.125 31.2969Z" fill="#D20DCD"/>
</svg>
