<svg width="80" height="80" viewBox="0 0 80 80" fill="none" xmlns="http://www.w3.org/2000/svg">
<path d="M42.1876 0.796654C35.5783 1.6404 34.3439 1.8904 32.422 2.79665C28.9845 4.40602 27.8439 5.6404 22.7032 13.3591C13.2814 27.5154 6.48449 39.9998 2.82824 49.9216C2.37512 51.1247 1.75012 52.8122 1.40637 53.6716C-0.718635 59.1404 -0.39051 63.2029 2.42199 66.2341C4.15637 68.0935 6.51574 69.3591 9.64074 70.0779C10.5626 70.2966 11.9689 70.6247 12.7345 70.8122C15.8595 71.5466 18.8439 72.5935 22.4376 74.2185C29.3595 77.3591 34.6564 78.906 41.3283 79.7029C43.922 80.0154 50.6564 79.9685 53.2033 79.6247C58.6564 78.8747 63.3908 77.5466 68.2189 75.406C70.922 74.2029 74.4533 72.281 75.0314 71.7185C76.2345 70.5154 75.2501 68.3279 73.547 68.3747C73.047 68.406 72.4064 68.6716 70.8751 69.531C65.297 72.6716 59.297 74.6716 52.8126 75.5622C50.3751 75.906 44.1408 75.9529 41.7189 75.656C35.3283 74.8747 30.8126 73.5466 24.0157 70.4841C19.6407 68.5154 16.797 67.5622 12.0314 66.4841C9.15637 65.8279 7.82824 65.3435 6.54699 64.4841C3.85949 62.7029 3.37512 59.7497 5.06262 55.5154C5.35949 54.7497 5.98449 53.0779 6.45324 51.7966C9.75012 42.7341 15.6407 31.6404 23.9532 18.8279C26.3595 15.1091 29.8283 10.031 30.5939 9.09352C31.6564 7.79665 33.8595 6.3904 35.6408 5.87477C36.547 5.60915 48.2345 4.06228 49.297 4.06228C50.6251 4.06228 52.4064 5.35915 52.797 6.62477C53.1251 7.65602 54.0626 13.5935 53.9689 14.0154C53.672 15.2498 52.6876 16.2185 51.4533 16.4841C51.1095 16.5466 49.547 16.2498 46.1408 15.4685C43.5001 14.8591 41.0001 14.2498 40.5939 14.1091C40.0158 13.9216 39.7501 13.906 39.3283 14.0466C38.1408 14.4373 38.2189 14.2029 35.297 25.4529C32.6564 35.656 32.6095 35.8435 32.8283 36.4685C33.422 38.1873 35.8751 38.2654 36.547 36.5935C36.6408 36.3591 37.7345 32.2341 38.9845 27.4373C40.2189 22.6404 41.2814 18.6716 41.3283 18.6248C41.3751 18.5779 42.8751 18.8748 44.6564 19.2966C50.4533 20.656 50.5626 20.6716 51.8283 20.4998C54.9845 20.0623 57.4376 17.6873 57.9689 14.5466C58.1408 13.5466 58.1095 13.2185 57.6564 10.5935C56.922 6.24977 56.7345 5.48415 56.2033 4.37477C54.9064 1.74978 51.922 -0.0470963 48.922 0.0154037C48.4376 0.0310287 45.4064 0.374779 42.1876 0.796654Z" fill="#D20DCD"/>
<path d="M46.6096 37.2029C39.9065 37.8435 33.7658 42.031 28.7659 49.3748C26.5471 52.6248 26.2659 53.3435 26.7815 54.3591C27.2346 55.2185 28.3596 55.6404 29.2502 55.2654C29.8752 54.9998 30.1409 54.6873 31.5471 52.4998C35.469 46.3904 40.2658 42.5779 45.4377 41.4685C46.9221 41.156 49.8127 41.1248 51.4065 41.3904C54.7033 41.9685 58.719 43.781 61.469 45.9216C61.969 46.3123 62.594 46.7966 62.8596 46.9841C63.7033 47.5935 64.9533 47.406 65.7033 46.5466C66.3283 45.8435 68.5002 44.3591 70.0158 43.5935C72.4065 42.406 74.4221 41.8591 77.3439 41.6404C78.7971 41.5154 79.2346 41.3279 79.6877 40.5779C80.0783 39.9372 80.0783 39.281 79.6877 38.6404C79.1721 37.781 78.7658 37.6247 77.1564 37.6404C73.2502 37.6872 68.9846 39.1404 65.3752 41.6404L63.9533 42.6248L62.4065 41.6091C58.5002 39.0466 54.4221 37.5466 50.3752 37.2029C49.3596 37.1091 48.4065 37.0466 48.2815 37.0466C48.1565 37.0622 47.4065 37.1404 46.6096 37.2029Z" fill="#D20DCD"/>
<path d="M66.2656 59.3902C66.0625 59.4683 65.4062 59.9839 64.8281 60.5308C61.5625 63.6245 57.4687 65.2027 52.7344 65.2027C50.4375 65.2027 48.6562 64.9214 46.2187 64.2027C44.8281 63.7964 44.5312 63.7495 44.0312 63.8902C43.1875 64.1558 42.6562 64.8589 42.6562 65.7339C42.6562 67.1402 43.2812 67.6402 45.9375 68.3433C49.4062 69.2652 53.3437 69.5152 56.4844 68.9995C60.9219 68.2652 65.6875 65.7339 68.2812 62.7652C69.2969 61.5933 69 60.0152 67.6562 59.4683C66.9375 59.187 66.7969 59.1714 66.2656 59.3902Z" fill="#D20DCD"/>
</svg>
