<svg width="69" height="69" viewBox="0 0 69 69" fill="none" xmlns="http://www.w3.org/2000/svg">
<rect width="69" height="69" rx="9" fill="#262627"/>
<path d="M35.6211 14.4084C32.2337 14.8408 31.6011 14.969 30.6162 15.4334C28.8544 16.2582 28.2699 16.8908 25.6353 20.8467C20.8066 28.1018 17.3232 34.5 15.4494 39.585C15.2171 40.2016 14.8968 41.0664 14.7207 41.5068C13.6316 44.3096 13.7998 46.3916 15.2412 47.9451C16.13 48.898 17.3392 49.5467 18.9408 49.915C19.4132 50.0271 20.1339 50.1953 20.5263 50.2914C22.1279 50.6678 23.6574 51.2043 25.4992 52.0371C29.0466 53.6467 31.7613 54.4394 35.1806 54.8478C36.5099 55.008 39.9613 54.984 41.2666 54.8078C44.0613 54.4234 46.4877 53.7428 48.9621 52.6457C50.3474 52.0291 52.1572 51.0441 52.4535 50.7558C53.0701 50.1392 52.5656 49.0181 51.6927 49.0422C51.4365 49.0582 51.1082 49.1943 50.3234 49.6348C47.4646 51.2443 44.3896 52.2693 41.0664 52.7258C39.8171 52.9019 36.622 52.926 35.3808 52.7738C32.1056 52.3734 29.7914 51.6928 26.308 50.1232C24.0658 49.1142 22.6084 48.6258 20.166 48.0732C18.6925 47.7369 18.0119 47.4887 17.3552 47.0482C15.9779 46.1353 15.7296 44.6219 16.5945 42.4517C16.7466 42.0594 17.0669 41.2025 17.3072 40.5459C18.9968 35.9014 22.0158 30.2158 26.2759 23.6494C27.5091 21.7436 29.2869 19.141 29.6793 18.6606C30.2238 17.9959 31.3529 17.2752 32.2658 17.0109C32.7302 16.8748 38.7201 16.082 39.2646 16.082C39.9453 16.082 40.8582 16.7467 41.0584 17.3953C41.2265 17.9238 41.707 20.9668 41.6589 21.183C41.5068 21.8156 41.0023 22.3121 40.3697 22.4482C40.1935 22.4803 39.3927 22.3281 37.647 21.9277C36.2937 21.6154 35.0125 21.3031 34.8043 21.2311C34.508 21.135 34.3718 21.127 34.1556 21.199C33.547 21.3992 33.5871 21.2791 32.0896 27.0447C30.7363 32.2738 30.7123 32.3699 30.8244 32.6902C31.1287 33.5711 32.3859 33.6111 32.7302 32.7543C32.7783 32.6342 33.3388 30.5201 33.9794 28.0617C34.6121 25.6033 35.1566 23.5693 35.1806 23.5453C35.2046 23.5213 35.9734 23.6734 36.8863 23.8897C39.8572 24.5863 39.9132 24.5943 40.5619 24.5063C42.1795 24.282 43.4367 23.0648 43.7089 21.4553C43.797 20.9428 43.781 20.7746 43.5488 19.4293C43.1724 17.2031 43.0763 16.8107 42.8041 16.2422C42.1394 14.8969 40.6099 13.976 39.0724 14.008C38.8242 14.016 37.2707 14.1922 35.6211 14.4084Z" fill="#D20DCD"/>
<path d="M37.8872 33.0666C34.4518 33.3949 31.3048 35.541 28.7423 39.3047C27.6052 40.9703 27.461 41.3386 27.7253 41.8591C27.9575 42.2996 28.5341 42.5158 28.9905 42.3236C29.3108 42.1875 29.447 42.0273 30.1677 40.9062C32.1776 37.7752 34.636 35.8213 37.2866 35.2527C38.0474 35.0925 39.5288 35.0765 40.3456 35.2127C42.0352 35.5089 44.0932 36.4379 45.5026 37.5349C45.7589 37.7351 46.0792 37.9834 46.2153 38.0795C46.6477 38.3918 47.2884 38.2957 47.6727 37.8552C47.9931 37.4949 49.1061 36.7341 49.8829 36.3418C51.1081 35.7332 52.1411 35.4529 53.6386 35.3408C54.3833 35.2767 54.6075 35.1806 54.8397 34.7963C55.0399 34.4679 55.0399 34.1316 54.8397 33.8033C54.5755 33.3629 54.3673 33.2828 53.5425 33.2908C51.5405 33.3148 49.3544 34.0595 47.5046 35.3408L46.7759 35.8453L45.9831 35.3248C43.9811 34.0115 41.8911 33.2427 39.8171 33.0666C39.2966 33.0185 38.8081 32.9865 38.744 32.9865C38.68 32.9945 38.2956 33.0345 37.8872 33.0666Z" fill="#D20DCD"/>
<path d="M47.9611 44.4377C47.857 44.4778 47.5207 44.742 47.2244 45.0223C45.5508 46.6079 43.4527 47.4167 41.0264 47.4167C39.8492 47.4167 38.9363 47.2725 37.6871 46.9042C36.9744 46.696 36.8223 46.6719 36.566 46.744C36.1336 46.8801 35.8613 47.2405 35.8613 47.6889C35.8613 48.4096 36.1816 48.6659 37.543 49.0262C39.3207 49.4987 41.3387 49.6268 42.9482 49.3626C45.2225 48.9862 47.6648 47.6889 48.9941 46.1674C49.5146 45.5668 49.3625 44.7581 48.6738 44.4778C48.3055 44.3336 48.2334 44.3256 47.9611 44.4377Z" fill="#D20DCD"/>
</svg>
