<svg width="69" height="69" viewBox="0 0 69 69" fill="none" xmlns="http://www.w3.org/2000/svg">
<rect width="69" height="69" rx="9" fill="#262627"/>
<path d="M28.5452 12.1997C28.4581 12.2977 28.2185 12.9946 28.0334 13.7459L27.6958 15.1179L27.0752 15.3574C25.7794 15.8583 23.4601 17.4154 22.0445 18.7221C21.4674 19.2556 21.2279 19.4081 20.9774 19.4081C20.2914 19.4081 18.1246 19.7456 17.0792 20.0069C15.5439 20.3989 13.9433 21.2047 13.1157 22.0105C11.9615 23.132 11.6566 24.2427 12.4188 24.5258C12.8653 24.7 13.0831 24.5694 13.5513 23.8398C14.2264 22.7618 15.1846 22.1411 16.9812 21.5967C18.3206 21.1938 19.0392 21.0632 20.6726 20.9434L21.9357 20.8454L22.6325 20.1921C24.4727 18.4825 26.7594 16.969 28.2621 16.479C28.4798 16.4136 28.7412 16.2721 28.8283 16.1632C29.0025 15.9672 29.7756 13.0817 29.7756 12.6243C29.7756 12.0799 28.9263 11.775 28.5452 12.1997Z" fill="#D20DCD"/>
<path d="M30.7556 12.2213C30.6358 12.3411 30.5378 12.548 30.5378 12.6787C30.5487 12.8202 31.3218 14.4427 32.2583 16.3046C34.0985 19.9306 34.2291 20.1157 35.0022 20.1157C35.7754 20.1157 35.906 19.9306 37.7462 16.3046C38.6827 14.4427 39.4558 12.8202 39.4667 12.6787C39.4775 12.0689 38.5738 11.764 38.1927 12.2649C38.0838 12.4064 37.3325 13.822 36.5267 15.4226C35.7209 17.0124 35.0349 18.3191 35.0022 18.3191C34.9696 18.3191 34.2836 17.0124 33.4778 15.4226C32.672 13.822 31.9207 12.4064 31.8118 12.2649C31.5614 11.9382 31.0605 11.9164 30.7556 12.2213Z" fill="#D20DCD"/>
<path d="M40.4141 12.1995C40.3052 12.3084 40.229 12.5153 40.229 12.646C40.229 13.0924 41.0021 15.9779 41.1763 16.1631C41.2634 16.2719 41.601 16.4244 41.9059 16.5115C43.3759 16.947 45.8585 18.4824 47.3721 19.887C48.3738 20.8235 48.6025 20.9324 49.4409 20.9324C51.4336 20.9324 54.3518 21.8143 55.5822 22.7834C55.8109 22.9686 56.2029 23.4259 56.4424 23.807C56.9107 24.5583 57.1393 24.6999 57.5858 24.5257C58.348 24.2425 58.0322 23.1319 56.8562 21.9777C55.4842 20.6384 52.9689 19.7128 49.9636 19.4624L49.0925 19.3861L48.2214 18.6348C46.5772 17.1975 44.9003 16.1304 43.2234 15.4335C42.8097 15.2593 42.4177 15.0851 42.3741 15.0415C42.3197 15.0088 42.1345 14.3882 41.9494 13.6804C41.7752 12.9617 41.5465 12.2975 41.4594 12.1886C41.2308 11.9382 40.6428 11.9491 40.4141 12.1995Z" fill="#D20DCD"/>
<path d="M50.8021 15.2268C50.5408 15.5643 50.5299 15.6079 50.6932 15.9672C50.9328 16.479 51.7276 16.5334 51.9781 16.0434C52.1523 15.7168 52.1196 15.4445 51.8801 15.1832C51.5643 14.8457 51.0852 14.8674 50.8021 15.2268Z" fill="#D20DCD"/>
<path d="M23.4274 21.8035C23.0789 22.0757 23.0354 22.5766 23.3294 22.8706C23.4709 23.0121 24.5598 23.2735 27.4235 23.8506C31.594 24.6781 31.7464 24.689 31.9533 24.1337C32.0948 23.7743 32.0077 23.4803 31.7028 23.2844C31.5722 23.1972 29.8191 22.8052 27.8155 22.4024C25.812 21.9995 24.0698 21.651 23.95 21.6293C23.8194 21.5966 23.6016 21.6728 23.4274 21.8035Z" fill="#D20DCD"/>
<path d="M41.4702 22.3806C39.3686 22.8161 37.572 23.2299 37.4631 23.317C37.2889 23.4694 37.2235 24.0466 37.376 24.2643C37.6373 24.6672 37.8224 24.6454 41.7642 23.8614C43.8875 23.4368 45.7277 23.023 45.8692 22.9359C46.1088 22.7726 46.2068 22.2172 46.0217 21.9559C45.9346 21.8143 45.5099 21.5857 45.3793 21.5966C45.3357 21.5966 43.5717 21.9559 41.4702 22.3806Z" fill="#D20DCD"/>
<path d="M34.5124 28.5544C34.4035 28.6742 33.9898 29.8938 33.5869 31.2658C33.184 32.6377 32.7484 33.9117 32.6178 34.086C32.498 34.2711 32.1387 34.5433 31.8229 34.6957L31.2567 34.9788H26.1825H21.1192L19.6492 33.5089C18.495 32.3437 18.1248 32.0389 17.8852 32.0389C17.5586 32.0389 17.1448 32.4853 17.1448 32.8446C17.1448 32.9862 17.7437 33.6722 18.8652 34.7937L20.5965 36.5142L26.1389 36.4815L31.6813 36.4488L32.2911 36.1657C33.5433 35.5777 34.1966 34.674 34.6866 32.8229C34.8173 32.3329 34.9589 31.93 34.9915 31.93C35.0351 31.93 35.2202 32.4744 35.4162 33.1386C35.9171 34.8591 36.4615 35.5668 37.7246 36.1657L38.3235 36.4488L44.247 36.4815L50.1705 36.5142L51.8365 34.8482C52.7947 33.89 53.5352 33.0624 53.5678 32.91C53.6658 32.5071 53.2738 32.0389 52.8383 32.0389C52.5661 32.0389 52.2721 32.2675 51.0199 33.5089L49.5281 34.9788H44.1381H38.7482L38.182 34.6957C37.8662 34.5433 37.5068 34.2711 37.3871 34.086C37.2564 33.9117 36.8209 32.6377 36.418 31.2658C36.0151 29.8938 35.6013 28.6742 35.4924 28.5544C35.3835 28.4347 35.1658 28.3367 35.0024 28.3367C34.8391 28.3367 34.6213 28.4347 34.5124 28.5544Z" fill="#D20DCD"/>
<path d="M18.8759 37.4943C18.669 37.7012 18.6472 37.7992 18.7234 38.507C18.9957 41.2836 20.139 45.6609 21.1081 47.5991C21.3041 47.9911 21.8485 49.374 22.3059 50.6806L23.1334 53.0326V54.2195C23.1334 55.5588 23.2314 55.7766 23.863 55.7766C24.4618 55.7766 24.549 55.5479 24.549 53.98V52.5753L23.7214 50.2342C23.2641 48.9384 22.7523 47.61 22.589 47.2833C22.1099 46.3251 21.5328 44.7027 21.1299 43.1347C20.8141 41.9152 20.4003 39.9878 20.4548 39.9878C20.4657 39.9878 20.8576 40.1621 21.3368 40.3689L22.2079 40.7392L22.2732 41.5885C22.3059 42.0567 22.4692 42.7972 22.6216 43.2327C23.1334 44.6918 24.1352 46.1945 24.5925 46.1945C24.6796 46.1945 24.8647 46.0965 25.0281 45.9658C25.3765 45.6936 25.3983 45.2907 25.0825 44.8334C24.9627 44.6483 24.647 44.082 24.3856 43.5594C23.8194 42.4052 23.5907 41.3272 23.765 40.6303C23.9501 39.9007 23.7867 39.6721 22.7959 39.3345C21.5328 38.8881 20.6617 38.3763 20.1608 37.7883C19.6599 37.1894 19.2679 37.1023 18.8759 37.4943Z" fill="#D20DCD"/>
<path d="M50.5842 37.7665C50.018 38.3654 48.9618 38.8881 47.5353 39.2692C46.9909 39.4107 46.5009 39.5632 46.4356 39.6067C46.2069 39.7483 46.1307 40.1729 46.2396 40.6956C46.4356 41.6212 45.9456 43.2327 45.02 44.6809C44.8349 44.9531 44.6934 45.3016 44.6934 45.4649C44.6934 45.7589 45.1289 46.1945 45.4338 46.1945C45.7387 46.1945 46.4029 45.356 46.9038 44.3325C47.4809 43.1565 47.7422 42.2309 47.7422 41.3816V40.7936L48.3738 40.5976C48.7113 40.4887 49.2667 40.2927 49.6042 40.1512L50.214 39.9116L50.0615 40.5758C49.5715 42.71 48.4064 46.1618 47.8402 47.1527C47.7313 47.3487 47.1433 48.6553 46.5445 50.06L45.4556 52.608V54.0126C45.4556 55.5806 45.5427 55.7766 46.1851 55.7766C46.7622 55.7766 46.8711 55.5262 46.8711 54.2304V53.0762L47.8947 50.6915C48.4609 49.3849 49.136 47.8496 49.4082 47.2833C50.3011 45.4105 51.2158 42.4596 51.8255 39.4543C52.1522 37.8319 52.1522 37.7556 51.88 37.4834C51.5097 37.1132 51.1178 37.2003 50.5842 37.7665Z" fill="#D20DCD"/>
<path d="M27.881 38.9099C27.5326 39.1821 27.4999 39.6721 27.8157 39.9879C28.0117 40.1839 28.175 40.2056 29.6341 40.2056C30.9299 40.2056 31.5179 40.2601 32.7374 40.4996L34.2401 40.7936V42.4705C34.2401 44.0929 34.251 44.1474 34.5123 44.3978C34.6538 44.5503 34.8825 44.67 35.0023 44.67C35.1329 44.67 35.3507 44.5503 35.4923 44.3978C35.7536 44.1474 35.7645 44.0929 35.7645 42.4705V40.8045L37.376 40.4996C38.65 40.2601 39.2816 40.2056 40.4793 40.2056C41.8296 40.2056 41.9929 40.1839 42.1889 39.9879C42.5047 39.6721 42.472 39.1821 42.1236 38.9099C41.8622 38.703 41.688 38.6812 40.3487 38.6812C39.0856 38.6812 38.5847 38.7356 36.9514 39.0623L35.0241 39.4543L33.075 39.0623C31.4199 38.7356 30.8972 38.6812 29.645 38.6812C28.3166 38.6812 28.1423 38.703 27.881 38.9099Z" fill="#D20DCD"/>
<path d="M27.0532 45.65C26.7918 45.9113 26.7701 46.2707 27.0096 46.6082C27.173 46.8369 27.2383 46.8478 29.0567 46.8478C30.7227 46.8478 31.1256 46.8913 32.552 47.1745C33.434 47.3487 34.1854 47.5011 34.2071 47.5011C34.218 47.5011 34.2398 48.5682 34.2398 49.8858C34.2398 52.1289 34.2507 52.2813 34.4685 52.5535C34.7733 52.9346 35.2307 52.9346 35.5356 52.5535C35.7533 52.2813 35.7642 52.1289 35.7642 49.8858C35.7642 48.5682 35.786 47.5011 35.7969 47.5011C35.8187 47.5011 36.57 47.3487 37.452 47.1745C38.8784 46.8913 39.2813 46.8478 40.9473 46.8478C42.7657 46.8478 42.8311 46.8369 42.9944 46.6082C43.2339 46.2707 43.2122 45.9113 42.9508 45.65C42.744 45.4431 42.5915 45.4322 40.6424 45.4322C38.726 45.4322 38.3993 45.4649 36.7769 45.7807L35.002 46.1291L33.2271 45.7807C31.6047 45.4649 31.278 45.4322 29.3616 45.4322C27.4125 45.4322 27.2601 45.4431 27.0532 45.65Z" fill="#D20DCD"/>
<path d="M16.0227 48.699C15.609 49.0257 15.6416 49.4286 16.1099 49.973L16.4801 50.4086L16.1099 50.7679C15.6634 51.1926 15.609 51.6281 15.9465 51.9657C16.2623 52.2815 16.6543 52.2379 17.1116 51.8132L17.5254 51.443L17.9501 51.8132C18.5489 52.325 19.1043 52.2706 19.3221 51.6826C19.4418 51.3668 19.3329 51.0946 18.9083 50.6264L18.6252 50.3324L18.9954 49.9513C19.4418 49.4939 19.4854 48.993 19.1152 48.6773C18.7449 48.3941 18.5054 48.4377 18.0154 48.8841L17.569 49.2761L17.2205 48.9386C16.7414 48.4813 16.393 48.405 16.0227 48.699Z" fill="#D20DCD"/>
<path d="M34.4686 53.882C34.1854 54.2413 34.1854 54.4809 34.4359 54.8076C34.8388 55.2976 35.7643 54.9818 35.7643 54.3611C35.7643 54.0236 35.3397 53.5989 35.0021 53.5989C34.7952 53.5989 34.6101 53.6969 34.4686 53.882Z" fill="#D20DCD"/>
</svg>
