<svg width="82" height="83" viewBox="0 0 82 83" fill="none" xmlns="http://www.w3.org/2000/svg">
<path d="M41.8615 0.161676C40.9135 0.595479 40.4476 1.35062 39.8692 3.4393C39.3551 5.23878 39.339 5.44765 39.5157 6.09032C40.2227 8.42 43.3075 8.74134 44.4161 6.57232C44.8017 5.80112 45.4765 3.21436 45.4765 2.47529C45.4765 1.70409 45.0588 0.932882 44.3197 0.386611C43.7895 -0.0150585 42.5042 -0.127525 41.8615 0.161676Z" fill="#D20DCD"/>
<path d="M18.6444 1.85976C17.4715 2.2293 16.7324 3.25757 16.7324 4.49471C16.7324 5.08919 16.9574 5.60332 18.1463 7.67594C19.8012 10.568 20.2028 10.9375 21.681 10.825C22.5807 10.7608 23.1431 10.4555 23.7054 9.68428C23.9625 9.34688 24.0428 9.00948 24.0428 8.25434C24.0428 7.3064 23.9785 7.14573 22.8539 5.16952C21.5525 2.92017 21.2151 2.43817 20.5884 2.11683C20.0261 1.82763 19.1424 1.71516 18.6444 1.85976Z" fill="#D20DCD"/>
<path d="M76.5129 7.59292C67.3387 8.6694 58.486 11.0955 49.7938 14.9194L47.5927 15.8834L46.1788 15.6102C44.3311 15.2568 40.202 15.1122 38.3543 15.3532C33.0522 16.044 28.0715 18.4862 24.3601 22.1816C18.8492 27.6925 16.5356 35.1635 17.8049 43.4058L18.0459 45.0124L17.3068 46.8601C14.463 53.9134 13.5632 61.8504 14.7522 69.4339C15.3145 73.065 16.6641 77.6119 17.9173 80.1344C18.5118 81.3234 18.6885 81.5322 19.3151 81.8375C19.7007 82.0464 20.247 82.207 20.5202 82.207C21.3235 82.207 22.4 81.5644 22.8016 80.8414C23.3158 79.9416 23.2676 79.2347 22.5928 77.6762C21.2432 74.5271 20.2149 70.7032 19.7811 67.1846C19.4919 64.871 19.5401 60.1955 19.8614 57.8659C20.3756 54.2187 21.436 50.5073 22.8659 47.31C23.605 45.6872 23.605 45.623 23.1069 42.7631C22.5767 39.7265 22.8659 35.6937 23.8299 32.8017C25.9829 26.3428 31.8312 21.6192 38.8845 20.6713C40.7964 20.4142 43.9937 20.5588 45.8896 20.9926C48.0586 21.4746 48.2996 21.4425 50.6936 20.3339C59.2893 16.3654 67.8529 13.9714 77.7018 12.7986C80.0958 12.5254 80.4653 12.429 80.9473 12.0756C82.4415 10.9348 82.329 8.79793 80.7063 7.70539C80.0636 7.27158 79.3567 7.25552 76.5129 7.59292Z" fill="#D20DCD"/>
<path d="M3.83416 16.9581C2.30782 17.4562 1.53661 19.095 2.14715 20.557C2.46849 21.3282 3.03083 21.746 5.79431 23.1438C8.20433 24.3649 8.3168 24.4131 9.07194 24.3006C11.1124 23.9793 12.0604 21.2961 10.6304 19.8662C10.0359 19.2878 5.56938 16.9902 4.84637 16.8938C4.52504 16.8617 4.0591 16.8938 3.83416 16.9581Z" fill="#D20DCD"/>
<path d="M3.95243 41.3245C1.34961 42.16 0.867606 42.4171 0.385603 43.1562C-0.128534 43.8952 -0.128534 45.1484 0.385603 45.9036C0.899739 46.6587 1.71914 47.1729 2.42608 47.1729C3.29369 47.1729 7.71205 45.775 8.33866 45.293C9.75253 44.2326 9.68826 42.1279 8.17799 41.0193C7.39072 40.4409 6.44278 40.5051 3.95243 41.3245Z" fill="#D20DCD"/>
<path d="M48.3736 41.9126C47.3453 42.2018 46.4456 43.3265 46.4456 44.3066C46.4456 44.5797 46.7348 45.7044 47.0722 46.7808C47.8112 49.0784 48.4218 51.7455 48.8074 54.2037C49.1448 56.4209 49.1769 62.5102 48.8717 64.6953C48.2932 68.9369 47.04 73.2268 45.3048 76.9221C44.4212 78.7859 44.3248 79.1072 44.389 79.782C44.5818 81.7743 46.7026 82.8026 48.4218 81.7421C49.0966 81.3244 50.0124 79.6213 51.1853 76.665C51.603 75.6046 52.0047 74.6728 52.0689 74.6085C52.1332 74.5282 52.5509 74.9459 53.0008 75.5082C54.6075 77.5166 57.6602 80.0873 59.54 81.0031C60.2791 81.3726 60.5361 81.4208 61.1627 81.3244C62.5445 81.1155 63.6692 79.6053 63.38 78.3039C63.1711 77.3238 62.8176 76.906 61.4198 76.0063C58.6885 74.2068 55.9732 71.1059 54.5272 68.1014L53.9648 66.9125L54.1737 65.0488C54.5272 62.0443 54.4468 56.1317 54.013 53.2879C53.5792 50.428 52.9365 47.6966 52.0689 45.0456C51.5227 43.3586 51.3299 42.9569 50.8639 42.5392C50.4141 42.1375 49.3537 41.6716 49.0163 41.7359C48.9681 41.7359 48.6788 41.8162 48.3736 41.9126Z" fill="#D20DCD"/>
</svg>
