<svg width="69" height="69" viewBox="0 0 69 69" fill="none" xmlns="http://www.w3.org/2000/svg">
<rect width="69" height="69" rx="9" fill="#262627"/>
<path d="M35.9187 14.077C35.4677 14.2833 35.2461 14.6426 34.9709 15.6362C34.7263 16.4923 34.7187 16.5916 34.8028 16.8973C35.1391 18.0056 36.6066 18.1585 37.134 17.1266C37.3174 16.7598 37.6384 15.5292 37.6384 15.1776C37.6384 14.8107 37.4397 14.4438 37.0881 14.184C36.8359 13.9929 36.2244 13.9394 35.9187 14.077Z" fill="#D20DCD"/>
<path d="M24.8659 14.8871C24.3079 15.0629 23.9563 15.5521 23.9563 16.1406C23.9563 16.4234 24.0633 16.668 24.6289 17.654C25.4162 19.0298 25.6073 19.2056 26.3104 19.1521C26.7385 19.1215 27.006 18.9763 27.2735 18.6094C27.3958 18.4489 27.434 18.2884 27.434 17.9291C27.434 17.4782 27.4034 17.4017 26.8684 16.4616C26.2493 15.3916 26.0888 15.1623 25.7907 15.0094C25.5232 14.8718 25.1028 14.8183 24.8659 14.8871Z" fill="#D20DCD"/>
<path d="M52.3898 17.6158C48.0255 18.1279 43.814 19.282 39.679 21.1011L38.6319 21.5597L37.9593 21.4298C37.0803 21.2617 35.116 21.1929 34.237 21.3075C31.7147 21.6362 29.3453 22.798 27.5796 24.5559C24.958 27.1776 23.8574 30.7317 24.4612 34.6527L24.5758 35.4171L24.2242 36.296C22.8714 39.6515 22.4433 43.4273 23.0089 47.0349C23.2765 48.7623 23.9185 50.9253 24.5147 52.1253C24.7975 52.6909 24.8816 52.7903 25.1796 52.9355C25.3631 53.0349 25.623 53.1113 25.7529 53.1113C26.1351 53.1113 26.6472 52.8056 26.8382 52.4616C27.0828 52.0336 27.0599 51.6973 26.7389 50.9559C26.0968 49.4578 25.6077 47.6387 25.4013 45.9648C25.2637 44.8642 25.2867 42.64 25.4395 41.5317C25.6841 39.7967 26.1886 38.0311 26.8688 36.5101C27.2204 35.7381 27.2204 35.7075 26.9835 34.347C26.7312 32.9024 26.8688 30.9839 27.3274 29.6082C28.3516 26.5355 31.1338 24.2884 34.4892 23.8375C35.3988 23.7152 36.9198 23.7839 37.8217 23.9903C38.8535 24.2196 38.9682 24.2043 40.107 23.6769C44.1962 21.789 48.2701 20.6502 52.9554 20.0922C54.0943 19.9623 54.2701 19.9164 54.4994 19.7483C55.2102 19.2056 55.1567 18.189 54.3847 17.6693C54.079 17.4629 53.7427 17.4553 52.3898 17.6158Z" fill="#D20DCD"/>
<path d="M17.8339 22.072C17.1078 22.3089 16.7409 23.0885 17.0314 23.7841C17.1842 24.151 17.4518 24.3497 18.7664 25.0147C19.9129 25.5955 19.9664 25.6185 20.3256 25.565C21.2963 25.4121 21.7473 24.1357 21.067 23.4554C20.7842 23.1803 18.6594 22.0873 18.3155 22.0414C18.1626 22.0261 17.9409 22.0414 17.8339 22.072Z" fill="#D20DCD"/>
<path d="M17.8803 33.6666C16.642 34.064 16.4127 34.1863 16.1834 34.5379C15.9389 34.8895 15.9389 35.4857 16.1834 35.8449C16.428 36.2041 16.8178 36.4487 17.1541 36.4487C17.5669 36.4487 19.6688 35.7838 19.9669 35.5545C20.6395 35.05 20.6089 34.0487 19.8904 33.5213C19.5159 33.2462 19.065 33.2768 17.8803 33.6666Z" fill="#D20DCD"/>
<path d="M39.014 33.9419C38.5248 34.0795 38.0968 34.6145 38.0968 35.0808C38.0968 35.2107 38.2344 35.7457 38.3949 36.2578C38.7465 37.3508 39.0369 38.6196 39.2203 39.789C39.3809 40.8438 39.3961 43.7406 39.2509 44.7801C38.9758 46.798 38.3796 48.8387 37.5541 50.5967C37.1337 51.4833 37.0879 51.6362 37.1184 51.9572C37.2102 52.905 38.2191 53.3941 39.0369 52.8897C39.3579 52.6909 39.7936 51.8808 40.3516 50.4744C40.5503 49.9699 40.7414 49.5266 40.7719 49.496C40.8025 49.4578 41.0012 49.6566 41.2153 49.9241C41.9796 50.8795 43.4318 52.1024 44.3261 52.5381C44.6777 52.7139 44.8 52.7368 45.0981 52.6909C45.7554 52.5916 46.2904 51.8731 46.1528 51.254C46.0535 50.7878 45.8853 50.589 45.2203 50.161C43.921 49.305 42.6293 47.8298 41.9414 46.4005L41.6739 45.8349L41.7732 44.9483C41.9414 43.519 41.9032 40.7062 41.6968 39.3534C41.4904 37.9929 41.1847 36.6935 40.7719 35.4324C40.5121 34.6298 40.4203 34.4387 40.1987 34.24C39.9847 34.0489 39.4802 33.8273 39.3197 33.8578C39.2968 33.8578 39.1592 33.8961 39.014 33.9419Z" fill="#D20DCD"/>
</svg>
