<svg width="76" height="80" viewBox="0 0 76 80" fill="none" xmlns="http://www.w3.org/2000/svg">
<path d="M0.6875 0.312378C0.484375 0.515503 0.34375 0.828003 0.34375 1.10925C0.34375 1.828 1.17188 3.79675 3.03125 7.49987C5.15625 11.7499 5.32812 12.4999 5.95312 20.0155C6.3125 24.3124 6.51562 25.4374 7.46875 28.2811C8.21875 30.5155 8.59375 31.0936 9.34375 31.0936C9.79688 31.0936 10.5 30.453 10.5 30.0468C10.5 29.8905 10.25 29.1093 9.9375 28.2968C9.01562 25.828 8.65625 23.9999 8.3125 19.9999C8.14062 17.9842 7.96875 16.1561 7.9375 15.9374C7.875 15.578 7.90625 15.578 8.34375 16.0936C11.6562 19.9374 14.5312 21.828 17.4375 22.1249C18.5625 22.2343 26.3125 21.7968 29.0156 21.4843C32.875 21.0155 35.4375 20.0624 37.0781 18.453L38 17.5624L38.9219 18.453C40.9844 20.453 43.7188 21.2655 49.9219 21.7186C52.125 21.8905 52.4219 21.8749 52.7656 21.6561C53.4531 21.203 53.4688 20.203 52.7969 19.7655C52.5781 19.6405 51.5469 19.4842 49.9531 19.3749C45.5625 19.0467 42.9688 18.4842 41.4375 17.4999C40.4844 16.8905 40.1094 16.4686 39.5938 15.453C39.2812 14.828 39.0156 14.5311 38.5781 14.328C38.0156 14.0467 37.9844 14.0467 37.4062 14.328C36.9844 14.5311 36.7344 14.8124 36.4688 15.3592C36 16.3592 34.9844 17.3436 33.9219 17.8592C32 18.8124 29.4219 19.1874 22.3125 19.6249C18.7344 19.8436 17.7969 19.8436 17.0781 19.6874C13.2969 18.8436 9.01562 14.1874 5.28125 6.81237C4.67188 5.60925 3.9375 4.09363 3.67188 3.46863L3.17188 2.34363H38H72.8281L72.5 3.078C70.3281 8.1405 67.2812 13.0936 64.5938 15.9374C62.1094 18.578 59.8438 19.8436 57.5156 19.8436C56.4844 19.8436 55.9688 20.2499 55.9688 21.0467C55.9688 23.0624 60.625 22.3124 63.9219 19.7811C64.7344 19.1561 66.5625 17.3436 67.6562 16.0936C68.0156 15.6874 68.125 15.6249 68.0781 15.8592C68.0312 16.0311 67.8594 17.8592 67.6875 19.9217C67.2812 24.7811 66.9219 26.2655 64.8906 31.2968C63.8125 33.9999 62.9375 36.5468 62.5938 38.0468C61.6719 42.0468 63.1094 55.6561 65.2656 63.1093C65.8125 65.0468 67.5 68.8436 67.9531 69.1874C68.3594 69.4843 69.1562 69.4218 69.4844 69.0624C69.9375 68.5624 69.8281 68.0155 68.8125 65.8593C67.5625 63.1718 66.8906 60.7343 66.0625 55.7811C65.2656 51.078 64.7969 47.0624 64.6406 43.2811C64.4688 39.4999 64.7812 38.0468 66.9219 32.5624C69.375 26.2499 69.5938 25.3749 70.0469 20.0155C70.6719 12.453 70.8438 11.6561 72.75 7.953C74.4375 4.67175 75.6562 1.79675 75.6562 1.10925C75.6562 0.828003 75.5156 0.515503 75.3125 0.312378L74.9688 -0.00012207H38H1.03125L0.6875 0.312378Z" fill="#D20DCD"/>
<path d="M37.125 24.5471C36.8438 24.8596 36.8281 25.2189 36.7812 30.0002L36.7344 35.1252L34.6719 35.8439C30.625 37.2502 27.4688 37.9846 25.4062 38.0158C24.2969 38.0314 24.0625 37.9846 23.4375 37.6096C21.75 36.6252 19.3281 32.8127 17.6094 28.4377C17 26.8596 16.6406 26.4064 16.0156 26.4064C15.5312 26.4064 14.875 27.0627 14.875 27.5471C14.875 28.0471 15.7656 30.2502 16.9062 32.5939C18.6875 36.2502 20.8438 38.9846 22.625 39.8439C24.5625 40.7971 28.375 40.3596 33.9219 38.5627C35.25 38.1408 36.4219 37.7502 36.5469 37.7033C36.7188 37.6408 36.75 38.7814 36.75 44.2814V50.9533L35.7031 51.4221C32.5156 52.8752 29.5312 53.7502 27.8281 53.7502C26.7812 53.7502 26.7344 53.7346 26.1406 53.1408C24.9062 51.9064 23.2656 48.6096 22.0625 44.9221C21.375 42.8127 20.9688 42.1877 20.2969 42.1877C20.0938 42.1877 19.7969 42.2971 19.6094 42.4221C19 42.8439 19.0312 43.3283 19.8594 45.7502C21.75 51.3283 23.7344 54.7189 25.6875 55.6877C27.2344 56.4533 29.7188 56.1877 33.3906 54.8752C34.3438 54.5314 35.4531 54.1096 35.8594 53.9221C36.2812 53.7502 36.6562 53.5939 36.6875 53.5939C36.7188 53.5939 36.75 56.5783 36.75 60.2033V66.8283L34.7656 67.7658C32.2656 68.9533 30.4688 69.5314 29.25 69.5314C28.3438 69.5314 28.3438 69.5314 27.5469 68.6721C26.625 67.6408 25.1719 64.8127 24.3281 62.3439C23.75 60.6408 23.4062 60.1564 22.7344 60.1564C22.25 60.1564 21.5938 60.8127 21.5938 61.3127C21.5938 62.3283 23.7812 67.3908 25 69.1564C25.7344 70.2658 26.875 71.3439 27.6094 71.6564C28.3594 71.9689 30.0781 71.9221 31.4688 71.5627C32.8438 71.2033 35.625 70.0627 37.0156 69.2814L38 68.7346L38.9844 69.2814C40.4219 70.0783 43.1562 71.2033 44.5156 71.5627C45.9219 71.9221 47.625 71.9689 48.3906 71.6564C49.125 71.3439 50.2656 70.2658 51 69.1564C52.2188 67.3908 54.4062 62.3283 54.4062 61.3127C54.4062 60.8283 53.75 60.1564 53.2812 60.1564C52.5781 60.1564 52.2812 60.5627 51.6875 62.2971C50.7969 64.8596 49.375 67.6564 48.4531 68.6721C47.6562 69.5314 47.6562 69.5314 46.75 69.5314C45.5312 69.5314 43.7344 68.9533 41.25 67.7658L39.25 66.8283V60.1877C39.25 54.9533 39.2969 53.5783 39.4531 53.6408C43.875 55.4533 45.5938 55.9533 47.7188 56.0471C49.3125 56.1252 49.4531 56.1096 50.2656 55.7189C52.25 54.7346 54.2344 51.3908 56.1406 45.7502C56.9688 43.3283 57 42.8439 56.3906 42.4221C56.2031 42.2971 55.9062 42.1877 55.7031 42.1877C55.0312 42.1877 54.625 42.8127 53.9375 44.9221C52.75 48.5939 51.0938 51.9064 49.8594 53.1408C49.2656 53.7346 49.2188 53.7502 48.125 53.7502C46.4531 53.7502 43.625 52.9064 40.1562 51.3596L39.25 50.9533V44.3127C39.25 40.6408 39.2656 37.6564 39.2969 37.6564C39.3281 37.6564 40.1875 37.9377 41.2031 38.2814C43.5312 39.0783 46.1562 39.7814 47.875 40.0783C49.5938 40.3908 51.9531 40.3908 52.8125 40.0939C54.7656 39.4064 56.6875 37.2189 58.7031 33.4064C59.7188 31.4689 61.125 28.0783 61.125 27.5471C61.125 27.0627 60.4688 26.4064 59.9844 26.4064C59.3594 26.4064 59 26.8596 58.3906 28.4377C57.1875 31.5002 55.4219 34.6721 54 36.3596C52.7188 37.8596 51.75 38.2033 49.5625 37.9533C47.2656 37.6877 44.7656 37.0314 41.0938 35.7502L39.2656 35.0939L39.2188 29.9846C39.1719 25.2189 39.1562 24.8596 38.875 24.5471C38.6719 24.3283 38.3906 24.2189 38 24.2189C37.6094 24.2189 37.3281 24.3283 37.125 24.5471Z" fill="#D20DCD"/>
<path d="M10.3441 33.75C9.9535 34.1406 9.9535 34.7188 10.3441 35.875C11.2504 38.4844 11.3441 39.1406 11.3285 42.2656C11.3129 46.4219 10.6254 52.4375 9.56287 57.8906C8.81287 61.6562 8.23475 63.5938 7.23475 65.75C5.09412 70.3281 3.891 74.3594 3.53162 78.0781C3.43787 79.1406 3.4535 79.2188 3.8285 79.5938L4.23475 80H38.0004H71.766L72.1566 79.5938C72.5472 79.2188 72.5629 79.1406 72.4535 78.0781C72.3285 76.6406 71.6566 73.25 71.3597 72.5625C71.016 71.7344 69.9222 71.6094 69.3597 72.3594C69.0629 72.7812 69.0629 72.7812 69.4535 74.4688C69.6722 75.4062 69.9066 76.5 69.9691 76.9062L70.0629 77.6562H38.0004H5.93787L6.04725 76.8281C6.42225 74.1562 7.50037 70.8125 9.21912 67.0156C9.8285 65.6875 10.4535 64.1094 10.641 63.5156C11.7347 59.75 12.7972 53.6875 13.4066 47.7344C13.7191 44.5625 13.766 39.6406 13.4847 38.3594C13.0941 36.5781 12.2035 33.9844 11.8754 33.7031C11.4535 33.3438 10.7347 33.3594 10.3441 33.75Z" fill="#D20DCD"/>
</svg>
